<?xml version="1.0" standalone="no"?>
<!DOCTYPE svg PUBLIC "-//W3C//DTD SVG 20010904//EN"
 "http://www.w3.org/TR/2001/REC-SVG-20010904/DTD/svg10.dtd">
<svg version="1.0" xmlns="http://www.w3.org/2000/svg"
 width="900.000000pt" height="507.000000pt" viewBox="0 0 900.000000 507.000000"
 preserveAspectRatio="xMidYMid meet">
<metadata>
Created by potrace 1.10, written by Peter Selinger 2001-2011
</metadata>
<g transform="translate(0.000000,507.000000) scale(0.100000,-0.100000)"
fill="#000000" stroke="none">
<path d="M4235 3850 c-3 -6 0 -12 7 -15 26 -10 413 0 413 10 0 14 -411 19
-420 5z"/>
<path d="M4122 3821 c-11 -7 -10 -10 3 -15 29 -11 55 -7 55 9 0 16 -36 20 -58
6z"/>
<path d="M4710 3814 c0 -11 8 -14 32 -12 46 4 49 28 4 28 -26 0 -36 -4 -36
-16z"/>
<path d="M4030 3785 c0 -11 7 -15 23 -13 12 2 22 8 22 13 0 6 -10 11 -22 13
-16 2 -23 -2 -23 -13z"/>
<path d="M4815 3790 c-8 -13 20 -24 40 -16 8 3 15 10 15 16 0 13 -47 13 -55 0z"/>
<path d="M3965 3760 c-8 -12 20 -24 35 -15 5 3 10 10 10 16 0 12 -37 12 -45
-1z"/>
<path d="M4890 3756 c0 -11 9 -16 26 -16 31 0 28 23 -4 28 -15 2 -22 -2 -22
-12z"/>
<path d="M3905 3730 c-8 -12 20 -24 35 -15 6 3 8 11 5 16 -8 12 -32 12 -40 -1z"/>
<path d="M4965 3730 c-3 -6 2 -13 12 -17 10 -3 22 -12 26 -20 10 -16 37 -17
37 -2 0 6 -9 13 -19 16 -11 3 -22 11 -25 19 -6 16 -22 18 -31 4z"/>
<path d="M3860 3695 c0 -8 7 -15 15 -15 8 0 15 7 15 15 0 8 -7 15 -15 15 -8 0
-15 -7 -15 -15z"/>
<path d="M3789 3651 c-13 -15 -32 -30 -41 -34 -10 -3 -18 -13 -18 -22 0 -8 -5
-15 -12 -15 -6 0 -9 -2 -6 -5 7 -8 58 16 58 27 0 5 14 22 31 37 17 16 27 31
22 34 -5 3 -20 -6 -34 -22z"/>
<path d="M5052 3668 c7 -19 38 -22 38 -4 0 10 -9 16 -21 16 -12 0 -19 -5 -17
-12z"/>
<path d="M5130 3606 c0 -10 9 -16 21 -16 24 0 21 23 -4 28 -10 2 -17 -3 -17
-12z"/>
<path d="M4426 3564 c-21 -55 5 -121 42 -110 19 6 22 15 22 61 0 39 -4 54 -16
59 -26 10 -42 7 -48 -10z"/>
<path d="M3618 3486 c-28 -25 -36 -46 -18 -46 17 0 51 40 48 57 -2 12 -9 10
-30 -11z"/>
<path d="M4127 3503 c-27 -26 20 -126 57 -121 28 4 24 40 -9 90 -25 38 -35 44
-48 31z"/>
<path d="M4748 3480 c-10 -11 -24 -35 -32 -55 -14 -33 -14 -36 5 -46 22 -11
49 3 49 26 0 7 7 18 16 25 19 16 15 64 -6 67 -8 1 -23 -7 -32 -17z"/>
<path d="M5300 3430 c0 -6 7 -13 15 -16 8 -4 15 -12 15 -20 0 -8 7 -14 15 -14
8 0 15 5 15 10 0 6 -7 13 -15 16 -8 4 -15 12 -15 20 0 8 -7 14 -15 14 -8 0
-15 -5 -15 -10z"/>
<path d="M4330 3384 c-52 -18 -145 -73 -179 -104 -52 -49 -104 -132 -127 -205
-22 -69 -25 -228 -6 -247 7 -7 12 -19 12 -28 0 -22 39 -91 80 -140 19 -23 50
-70 69 -103 33 -59 35 -67 38 -181 3 -117 4 -119 33 -146 25 -23 29 -33 24
-58 -5 -25 -1 -36 28 -64 19 -18 42 -50 51 -70 38 -82 120 -104 177 -48 16 16
30 37 30 45 0 9 18 34 40 56 33 32 40 47 40 78 0 27 7 44 26 62 42 39 47 55
28 94 -34 72 11 219 100 328 20 24 36 49 36 56 0 6 5 11 10 11 6 0 10 6 10 13
0 6 7 26 16 42 25 47 45 175 34 216 -6 19 -10 45 -10 58 0 81 -130 247 -240
305 -51 28 -64 30 -180 33 -69 1 -132 0 -140 -3z m250 -61 c96 -35 169 -96
213 -178 45 -83 52 -111 52 -195 -1 -118 -31 -191 -130 -313 -31 -38 -67 -131
-74 -191 -5 -43 -10 -51 -34 -59 -38 -12 -77 -1 -77 22 0 10 3 21 7 25 5 4 14
31 21 59 28 114 33 132 41 142 5 5 14 34 21 64 12 50 11 55 -6 68 -16 12 -20
11 -31 -4 -7 -9 -13 -27 -13 -40 0 -13 -4 -31 -9 -41 -5 -9 -14 -29 -20 -44
-10 -27 -13 -28 -85 -28 l-74 0 -17 58 c-22 77 -37 106 -58 110 -22 4 -34 -25
-19 -48 6 -10 14 -34 17 -54 4 -20 11 -38 15 -41 5 -3 11 -24 15 -48 4 -23 11
-46 15 -52 4 -5 11 -29 15 -52 4 -24 11 -45 16 -49 5 -3 9 -14 9 -25 0 -16 -7
-19 -54 -19 -61 0 -58 -3 -75 90 -11 64 -45 131 -105 209 -57 74 -71 103 -91
185 -15 63 -15 74 1 140 23 100 50 152 108 211 59 60 89 80 134 89 17 4 34 12
37 17 11 16 185 11 235 -8z m-63 -769 c3 -9 -1 -40 -10 -68 -9 -28 -18 -60
-19 -71 -5 -32 -52 -27 -56 5 -2 14 -8 30 -12 35 -12 15 -23 82 -16 100 8 22
104 21 113 -1z m125 -230 c12 -8 9 -37 -6 -57 -12 -16 -30 -17 -182 -15 l-169
3 -10 28 c-8 24 -6 31 10 44 17 12 48 13 184 8 91 -3 168 -8 173 -11z m-58
-130 c21 -20 20 -26 -4 -52 -19 -20 -31 -22 -122 -22 -80 0 -105 3 -120 17
-21 18 -24 59 -5 66 6 3 62 6 124 6 89 1 115 -2 127 -15z m-67 -130 c8 -20
-30 -54 -60 -54 -29 0 -62 33 -54 55 9 21 105 21 114 -1z"/>
<path d="M4548 3189 c-9 -5 -41 -58 -71 -117 -30 -59 -72 -140 -93 -179 -36
-67 -37 -74 -22 -89 22 -22 31 -14 66 54 69 137 135 258 148 273 17 19 18 30
2 52 -10 12 -18 14 -30 6z"/>
<path d="M4252 3047 c-23 -23 -42 -48 -42 -54 0 -17 89 -103 106 -103 28 0 26
29 -5 62 -17 18 -31 35 -31 39 0 3 15 20 34 38 19 19 32 40 29 47 -10 27 -49
14 -91 -29z"/>
<path d="M4607 3083 c-13 -13 -7 -33 18 -55 32 -28 31 -33 -6 -75 -33 -38 -34
-56 -3 -61 27 -4 106 82 97 106 -8 21 -77 92 -90 92 -5 0 -13 -3 -16 -7z"/>
<path d="M3530 3365 c0 -8 7 -15 15 -15 8 0 15 7 15 15 0 8 -7 15 -15 15 -8 0
-15 -7 -15 -15z"/>
<path d="M5360 3335 c0 -8 7 -15 15 -15 8 0 15 7 15 15 0 8 -7 15 -15 15 -8 0
-15 -7 -15 -15z"/>
<path d="M3504 3316 c-8 -22 3 -33 18 -18 9 9 9 15 0 24 -9 9 -13 7 -18 -6z"/>
<path d="M5396 3293 c-12 -12 -6 -33 9 -33 8 0 15 6 15 14 0 17 -14 28 -24 19z"/>
<path d="M3470 3250 c0 -11 7 -20 15 -20 8 0 15 9 15 20 0 11 -7 20 -15 20 -8
0 -15 -9 -15 -20z"/>
<path d="M3884 3255 c-10 -24 4 -46 36 -58 17 -6 30 -15 30 -19 0 -14 40 -8
46 6 7 17 -12 56 -27 56 -6 0 -17 7 -25 15 -9 8 -24 15 -35 15 -11 0 -22 -7
-25 -15z"/>
<path d="M4943 3234 c-34 -27 -43 -61 -19 -70 8 -3 35 6 60 21 34 20 46 33 46
51 0 20 -5 24 -27 24 -16 0 -43 -12 -60 -26z"/>
<path d="M5424 3226 c-8 -21 3 -49 16 -41 5 3 10 15 10 25 0 25 -18 36 -26 16z"/>
<path d="M3444 3196 c-8 -21 3 -49 16 -41 5 3 10 15 10 25 0 25 -18 36 -26 16z"/>
<path d="M5456 3163 c-12 -13 -6 -53 9 -53 9 0 15 9 15 24 0 26 -12 40 -24 29z"/>
<path d="M3415 3117 c-9 -22 -2 -62 10 -60 6 1 11 14 13 29 4 32 -14 56 -23
31z"/>
<path d="M5485 3038 c-3 -8 -4 -101 -3 -207 2 -139 6 -195 15 -198 15 -5 19
402 3 412 -5 3 -12 0 -15 -7z"/>
<path d="M3385 2969 c-10 -26 -1 -259 10 -259 14 0 19 250 6 263 -7 7 -12 5
-16 -4z"/>
<path d="M3797 2954 c-4 -4 -7 -18 -7 -30 0 -27 26 -37 86 -32 36 3 39 5 39
33 0 29 -1 30 -55 33 -31 2 -59 0 -63 -4z"/>
<path d="M4984 2925 c-9 -23 3 -33 48 -37 50 -6 88 6 88 26 0 19 -22 26 -81
26 -34 0 -51 -5 -55 -15z"/>
<path d="M3920 2655 c-7 -8 -18 -15 -25 -15 -20 0 -27 -32 -11 -48 12 -12 20
-13 44 -3 42 17 72 48 66 66 -8 19 -58 19 -74 0z"/>
<path d="M4911 2661 c-12 -8 -13 -14 -3 -36 6 -14 20 -28 29 -32 10 -3 26 -13
35 -20 22 -19 58 -8 58 18 0 11 -16 29 -41 44 -53 34 -61 37 -78 26z"/>
<path d="M3414 2617 c-7 -20 -2 -47 11 -50 14 -3 19 43 6 56 -7 7 -12 6 -17
-6z"/>
<path d="M5450 2544 c0 -31 23 -28 28 4 2 15 -2 22 -12 22 -11 0 -16 -9 -16
-26z"/>
<path d="M3444 2516 c-8 -21 3 -49 16 -41 5 3 10 15 10 25 0 25 -18 36 -26 16z"/>
<path d="M5424 2476 c-8 -22 3 -33 18 -18 9 9 9 15 0 24 -9 9 -13 7 -18 -6z"/>
<path d="M3472 2436 c1 -10 8 -17 13 -17 15 1 12 24 -3 29 -9 3 -13 -2 -10
-12z"/>
<path d="M5390 2405 c0 -8 7 -15 15 -15 8 0 15 7 15 15 0 8 -7 15 -15 15 -8 0
-15 -7 -15 -15z"/>
<path d="M3505 2380 c-4 -6 -3 -16 3 -22 6 -6 12 -6 17 2 4 6 3 16 -3 22 -6 6
-12 6 -17 -2z"/>
<path d="M5360 2345 c0 -8 7 -15 15 -15 8 0 15 7 15 15 0 8 -7 15 -15 15 -8 0
-15 -7 -15 -15z"/>
<path d="M3530 2320 c0 -11 6 -20 14 -20 7 0 16 -9 19 -20 6 -23 27 -27 27 -5
0 8 -5 15 -10 15 -6 0 -15 11 -20 25 -11 30 -30 33 -30 5z"/>
<path d="M5334 2295 c-3 -14 -12 -25 -20 -25 -8 0 -14 -7 -14 -15 0 -8 7 -15
15 -15 8 0 15 6 15 14 0 8 7 16 15 20 17 6 20 32 5 41 -5 3 -12 -6 -16 -20z"/>
<path d="M3590 2230 c0 -6 7 -13 15 -16 8 -4 15 -10 15 -15 0 -12 38 -49 50
-49 16 0 12 18 -10 40 -11 11 -24 20 -30 20 -5 0 -10 7 -10 15 0 8 -7 15 -15
15 -8 0 -15 -5 -15 -10z"/>
<path d="M5280 2223 c0 -6 -9 -13 -20 -16 -21 -5 -27 -31 -11 -42 10 -6 45 55
36 63 -3 3 -5 1 -5 -5z"/>
<path d="M3710 2110 c0 -12 37 -50 49 -50 5 0 11 -7 15 -15 3 -8 10 -15 16
-15 5 0 10 7 10 15 0 8 -7 15 -15 15 -8 0 -15 5 -15 10 0 6 -9 19 -20 30 -22
22 -40 26 -40 10z"/>
<path d="M5140 2090 c-13 -16 -29 -30 -36 -30 -8 0 -14 -6 -14 -14 0 -7 -9
-16 -20 -19 -11 -3 -20 -10 -20 -16 0 -17 30 -13 36 4 4 8 11 15 16 15 15 0
88 72 82 82 -9 14 -20 9 -44 -22z"/>
<path d="M3816 2021 c-3 -5 1 -12 10 -15 20 -8 29 -1 19 13 -8 13 -22 14 -29
2z"/>
<path d="M3862 1988 c5 -15 28 -18 29 -3 0 6 -7 12 -17 13 -10 3 -15 -1 -12
-10z"/>
<path d="M5000 1986 c0 -7 -10 -16 -22 -20 -19 -4 -20 -8 -10 -18 11 -11 16
-10 25 3 7 8 20 18 30 22 23 9 22 27 -3 27 -11 0 -20 -6 -20 -14z"/>
<path d="M3912 1958 c7 -19 38 -22 38 -4 0 10 -9 16 -21 16 -12 0 -19 -5 -17
-12z"/>
<path d="M3977 1934 c-14 -14 -7 -25 13 -22 12 2 21 8 21 13 0 12 -24 18 -34
9z"/>
<path d="M4040 1895 c0 -9 9 -15 25 -15 16 0 25 6 25 15 0 9 -9 15 -25 15 -16
0 -25 -6 -25 -15z"/>
<path d="M4820 1895 c0 -11 7 -15 23 -13 12 2 22 8 22 13 0 6 -10 11 -22 13
-16 2 -23 -2 -23 -13z"/>
<path d="M4115 1870 c-3 -5 0 -13 9 -16 21 -8 61 -1 61 11 0 14 -62 19 -70 5z"/>
<path d="M4727 1874 c-11 -12 3 -24 29 -24 15 0 24 6 24 15 0 15 -40 21 -53 9z"/>
<path d="M4244 1838 c-7 -11 7 -14 88 -16 72 -3 110 10 71 22 -25 8 -154 3
-159 -6z"/>
<path d="M4485 1840 c-3 -6 0 -12 7 -15 23 -9 173 0 173 10 0 13 -172 18 -180
5z"/>
</g>
</svg>
